<?xml version="1.0" encoding="utf-8"?>
<!-- Generator: Adobe Illustrator 21.0.0, SVG Export Plug-In . SVG Version: 6.00 Build 0)  -->
<svg version="1.1" id="Layer_1" xmlns="http://www.w3.org/2000/svg" xmlns:xlink="http://www.w3.org/1999/xlink" x="0px" y="0px"
	 viewBox="0 0 1066 258" style="enable-background:new 0 0 1066 258;" xml:space="preserve">
<style type="text/css">
	.st0{fill:#221F1F;}
</style>
<g>
	<g>
		<path class="st0" d="M904.3,78.4c-8.5,2.3-16.3,6.4-23.1,11.9c-7.2,6.3-12.9,14.2-16.3,23.1c-4.3,11.3-6.3,23.4-6,35.5v70.2
			l36.3,0v-74.6c0-10.9,2.4-18.9,7.3-23.9c4.9-5.1,12.3-7.6,22.3-7.6h11.9V74.6h-5.2C922.3,74.5,913.2,75.8,904.3,78.4"/>
		<path class="st0" d="M1012.9,113.1c6.9,0,12.4-5.6,12.4-12.4V74.6l-41.5,0V44.5c0-6.9-5.6-12.4-12.4-12.4l-23.9,0v115.5
			c-0.3,12.1,1.7,24.2,6,35.5c3.5,8.9,9.1,16.9,16.3,23.1c6.8,5.6,14.6,9.6,23.1,11.9c8.9,2.6,18,3.9,27.3,3.8h5.2v-38.6h-11.9
			c-10,0-17.5-2.6-22.3-7.6c-4.9-5.1-7.3-13-7.3-23.9v-38.7H1012.9z"/>
	</g>
	<g>
		<g>
			<path class="st0" d="M440.3,146.5v-0.3c0-16.7,3.1-28.6,9.3-35.9c4.8-5,11.5-7.8,18.5-7.6c8.3,0,14.7,2.6,19.2,7.6
				c2.1,2.4,3.9,5.2,5.2,8.2h36.3c-2.6-10.1-7.1-19.5-13.4-27.8c-11.4-13-27.5-19.5-48.3-19.5c-19.7,0-35.1,6.7-46.2,20.1
				c-10.7,13-16.1,31.2-16.1,54.4c0,0.3,0,1.4,0,1.7c0,23.2,5.4,41.4,16.1,54.4c11.1,13.4,26.5,20.2,46.2,20.1
				c20.8,0,36.9-6.5,48.3-19.5c6.3-8.2,10.9-17.7,13.4-27.8h-29.2c-3.9,0-7.7,1.8-10,5.1c-0.7,1.1-1.5,2.1-2.4,3.1
				c-4.5,5-10.9,7.6-19.2,7.6c-7,0.2-13.7-2.6-18.5-7.6c-6.2-7.3-9.3-19.2-9.3-35.9L440.3,146.5L440.3,146.5z"/>
		</g>
		<g>
			<path class="st0" d="M638.2,75.1c-10.3-4.4-21.8-5.2-32.7-2.3c-11.3,2.8-20.9,10.3-26.5,20.6v-49c0-6.9-5.6-12.4-12.4-12.4h-23
				v187.2H579v-74.6c0-12.7,2.6-22.7,7.8-29.9c5.1-7.2,13.5-11.3,22.3-10.9c8.6-0.2,16.6,4.1,21.2,11.3l0.1,0
				c2.9,4.2,4.9,8.9,5.9,13.9c0.9,4.9,1.3,9.9,1.3,14.9v75.1h34.8V135c0-16.7-3.3-29.8-9.8-39.2C656.6,86.8,648.1,79.7,638.2,75.1"
				/>
			<path class="st0" d="M376.4,90.8c-11.5-13.1-27.5-19.6-48.3-19.6c-19.7,0-35.1,6.7-46.2,20.1c-10.7,13-16.1,31.2-16.1,54.4
				c0,24.3,5.5,43,16.6,56c11.1,13.4,26.4,20.1,46.2,20.1c16.3,0,29.7-4.5,40.4-12.5c10.7-8,18-19.6,21.8-34.8h-27.7
				c-4.3,0-8.3,2.1-10.8,5.5c-3.3,4.6-9.8,10.3-21.5,10.3c-9,0-15.8-3-20.3-8.8c-4.9-5.4-7.4-13.7-7.8-25h89.6
				C392.4,127.7,387.6,104.2,376.4,90.8 M302.8,132.1c0.3-9.4,2.9-16.6,7.8-21.7c4.9-5,11.6-7.8,18.6-7.6c8.4,0,15,2.9,19.2,7.6
				c4.2,4.7,6.6,12,7.3,21.7H302.8z"/>
			<path class="st0" d="M288.1,44.5c0-6.9-5.6-12.4-12.4-12.4H155v33.2h48v153.9h36.8V65.3h48.2V44.5z"/>
		</g>
		<g>
			<path class="st0" d="M756.3,32.1c-7.2,0-13.6,4.6-15.9,11.4l-59.2,175.7h38.9l11.4-38.6h69.6l11.9,38.6h38.9L787.1,32.1H756.3z
				 M741.5,149l24.9-79.4l24.9,79.4H741.5z"/>
			<polygon class="st0" points="101.9,219.1 139.5,219.1 139.5,81 101.9,81 			"/>
			<path class="st0" d="M48.7,93.4v27.7h37.6V81H61.1C54.3,81,48.7,86.6,48.7,93.4"/>
			<path class="st0" d="M139.5,32h-23h0h-2.1c-3.4,0-6.4,1.3-8.6,3.5c-0.1,0.1-0.2,0.2-0.3,0.3c-2.2,2.2-3.5,5.3-3.5,8.7v2.1v18.6
				h37.6V32z"/>
			<rect x="48.7" y="179" class="st0" width="37.6" height="40.1"/>
		</g>
	</g>
</g>
</svg>
